<svg width="23.999999999999996" height="23.999999999999996" xmlns="http://www.w3.org/2000/svg" fill="none">

 <g>
  <title>Layer 1</title>
  <path id="svg_1" fill="#4cc9f0" d="m22,7.81l0,6.09l-1.63,-1.4c-0.78,-0.67 -2.04,-0.67 -2.82,0l-4.16,3.57c-0.78,0.67 -2.04,0.67 -2.82,0l-0.34,-0.28c-0.71,-0.62 -1.84,-0.68 -2.64,-0.14l-4.92,3.3l-0.11,0.08c-0.37,-0.8 -0.56,-1.75 -0.56,-2.84l0,-8.38c0,-3.64 2.17,-5.81 5.81,-5.81l8.38,0c3.64,0 5.81,2.17 5.81,5.81z" opacity="0.4"/>
  <path id="svg_2" fill="#f72585" d="m8.99914,10.3801c1.31446,0 2.37996,-1.06554 2.37996,-2.37998c0,-1.31444 -1.0655,-2.38 -2.37996,-2.38c-1.31444,0 -2.38,1.06556 -2.38,2.38c0,1.31444 1.06556,2.37998 2.38,2.37998z"/>
  <path id="svg_3" fill="#7209b7" d="m22.0005,13.9001l0,2.29c0,3.64 -2.17,5.81 -5.81,5.81l-8.37995,0c-2.55,0 -4.39,-1.07 -5.25,-2.97l0.11,-0.08l4.92,-3.3c0.8,-0.54 1.93,-0.48 2.63995,0.14l0.34,0.28c0.78,0.67 2.04,0.67 2.82,0l4.16,-3.57c0.78,-0.67 2.04,-0.67 2.82,0l1.63,1.4z"/>
 </g>
</svg>